<?xml version="1.0" encoding="utf-8"?>
<!-- Generator: Adobe Illustrator 16.0.0, SVG Export Plug-In . SVG Version: 6.00 Build 0)  -->
<!DOCTYPE svg PUBLIC "-//W3C//DTD SVG 1.1//EN" "http://www.w3.org/Graphics/SVG/1.1/DTD/svg11.dtd">
<svg version="1.1" xmlns="http://www.w3.org/2000/svg" xmlns:xlink="http://www.w3.org/1999/xlink" x="0px" y="0px"
	 width="1075.01px" height="200.6px" viewBox="0 0 1075.01 200.6" style="enable-background:new 0 0 1075.01 200.6;"
	 xml:space="preserve">
<style type="text/css">
<![CDATA[
	.st0{fill:#4842E3;}
	.st1{fill:#FF8A1F;stroke:#FF8A1F;stroke-width:4;stroke-miterlimit:10;}
	.st2{fill:#FFFFFF;stroke:#FFFFFF;stroke-width:3;stroke-linecap:round;stroke-linejoin:round;stroke-miterlimit:10;}
	.st3{fill:#FFFFFF;stroke:#FFFFFF;stroke-width:5.5;stroke-linecap:round;stroke-linejoin:round;stroke-miterlimit:10;}
	.st4{fill:#FFFFFF;}
	.st5{fill:#4842E3;stroke:#4842E3;stroke-width:5.5;stroke-linecap:round;stroke-linejoin:round;stroke-miterlimit:10;}
	.st6{fill:#4842E3;stroke:#4842E3;stroke-width:3;stroke-linecap:round;stroke-linejoin:round;stroke-miterlimit:10;}
]]>
</style>
<g id="Calque_2">
</g>
<g id="Calque_3">
</g>
<g id="Calque_1">
	<path class="st1" d="M1058.1,36.23c5.98,0.19,11.22-6.36,11.52-14.43c0.3-8.05-4.44-15.14-10.42-15.13
		c-72.2,0.07-107.97,8.96-107.97,8.96c-5.95,1.09-9.52,10.76-8.33,17.93c1.4,8.43,7.16,11.87,13.11,10.77c0,0,36.89-3.98,52.64-5.98
		S1058.1,36.23,1058.1,36.23z"/>
	<g>
		<g>
			<path class="st0" d="M315.95,182.83c-12.79,0-23.51-4.36-31.86-12.95c-8.35-8.58-12.58-20.55-12.58-35.58V64.55
				c0-0.83,0.67-1.5,1.5-1.5h29.31c0.83,0,1.5,0.67,1.5,1.5v66.12c0,7.12,1.91,12.61,5.69,16.31c3.78,3.71,8.93,5.59,15.31,5.59
				c7.22,0,12.81-2.15,17.1-6.58c4.24-4.38,6.4-11.14,6.4-20.09V64.55c0-0.83,0.67-1.5,1.5-1.5h29.31c0.83,0,1.5,0.67,1.5,1.5v113.6
				c0,0.83-0.67,1.5-1.5,1.5H349.8c-0.83,0-1.5-0.67-1.5-1.5v-8.28C340.87,178.48,330.01,182.83,315.95,182.83z"/>
			<path class="st0" d="M379.11,64.55v113.6H349.8v-12.72c-7.12,10.61-18.4,15.9-33.85,15.9c-12.42,0-22.68-4.16-30.79-12.5
				c-8.1-8.33-12.15-19.84-12.15-34.54V64.55h29.31v66.12c0,7.58,2.04,13.37,6.13,17.38c4.09,4.02,9.54,6.02,16.36,6.02
				c7.58,0,13.63-2.35,18.18-7.04c4.55-4.7,6.82-11.74,6.82-21.13V64.55H379.11 M379.11,61.55H349.8c-1.66,0-3,1.34-3,3v61.35
				c0,8.54-2.01,14.95-5.97,19.05c-3.99,4.12-9.23,6.13-16.02,6.13c-6.06,0-10.72-1.69-14.25-5.16c-3.52-3.46-5.24-8.44-5.24-15.24
				V64.55c0-1.66-1.34-3-3-3h-29.31c-1.66,0-3,1.34-3,3v69.75c0,15.43,4.38,27.76,13,36.63c8.65,8.89,19.73,13.4,32.94,13.4
				c12.96,0,23.3-3.6,30.85-10.72v4.54c0,1.66,1.34,3,3,3h29.31c1.66,0,3-1.34,3-3V64.55C382.11,62.89,380.77,61.55,379.11,61.55
				L379.11,61.55z"/>
		</g>
		<g>
			<path class="st0" d="M446.23,180.58c-12.56,0-22.1-2.32-28.34-6.9c-8.62-6.32-13-17.66-13-33.7V92.72c0-0.11,0.01-0.21,0.03-0.31
				V64.85c-0.02-0.1-0.03-0.2-0.03-0.3V41.6c0-0.66,0.43-1.24,1.07-1.44l29.31-8.86c0.14-0.04,0.29-0.06,0.43-0.06
				c0.32,0,0.63,0.1,0.89,0.3c0.38,0.28,0.61,0.73,0.61,1.2v30.31h24.18c0.83,0,1.5,0.67,1.5,1.5v28.17c0,0.83-0.67,1.5-1.5,1.5
				h-24.18v45.76c0,3.48,0.83,6.02,2.47,7.53c1.7,1.57,4.29,2.47,7.71,2.68c1.58,0.1,3.36,0.14,5.28,0.14
				c2.57,0,5.48-0.09,8.64-0.26c0.03,0,0.05,0,0.08,0c0.38,0,0.75,0.15,1.03,0.41c0.3,0.28,0.47,0.68,0.47,1.09v26.58
				c0,0.76-0.57,1.41-1.33,1.49C456.03,180.27,450.87,180.58,446.23,180.58z"/>
			<path class="st0" d="M435.71,32.74v31.81h25.68v28.17h-25.68v47.26c0,3.94,0.99,6.82,2.96,8.63c1.97,1.82,4.85,2.84,8.63,3.07
				c1.62,0.1,3.41,0.15,5.37,0.15c2.61,0,5.52-0.09,8.72-0.26v26.58c-5.49,0.62-10.54,0.93-15.15,0.93c-12.3,0-21.45-2.2-27.45-6.61
				c-8.26-6.05-12.39-16.88-12.39-32.49V92.72h0.03V64.55h-0.03V41.6L435.71,32.74 M435.71,29.74c-0.29,0-0.58,0.04-0.87,0.13
				l-29.31,8.86c-1.27,0.38-2.13,1.55-2.13,2.87v22.95c0,0.15,0.01,0.3,0.03,0.44v27.3c-0.02,0.14-0.03,0.29-0.03,0.44v47.26
				c0,16.54,4.58,28.28,13.61,34.91c6.5,4.77,16.33,7.19,29.22,7.19c4.7,0,9.91-0.32,15.49-0.95c1.52-0.17,2.66-1.46,2.66-2.98
				v-26.58c0-0.82-0.34-1.61-0.94-2.18c-0.56-0.53-1.3-0.82-2.06-0.82c-0.05,0-0.11,0-0.16,0c-3.13,0.17-6.01,0.26-8.56,0.26
				c-1.89,0-3.63-0.05-5.19-0.14c-3.06-0.19-5.34-0.95-6.77-2.28c-1.32-1.22-1.99-3.38-1.99-6.43V95.72h22.68c1.66,0,3-1.34,3-3
				V64.55c0-1.66-1.34-3-3-3h-22.68V32.74c0-0.95-0.45-1.84-1.21-2.41C436.97,29.94,436.34,29.74,435.71,29.74L435.71,29.74z"/>
		</g>
		<g>
			<path class="st0" d="M488.38,179.65c-0.83,0-1.5-0.67-1.5-1.5V64.55c0-0.83,0.67-1.5,1.5-1.5h29.31c0.83,0,1.5,0.67,1.5,1.5
				v113.6c0,0.83-0.67,1.5-1.5,1.5H488.38z"/>
			<path class="st0" d="M517.69,64.55v113.6h-29.31V64.55H517.69 M517.69,61.55h-29.31c-1.66,0-3,1.34-3,3v113.6c0,1.66,1.34,3,3,3
				h29.31c1.66,0,3-1.34,3-3V64.55C520.69,62.89,519.35,61.55,517.69,61.55L517.69,61.55z"/>
		</g>
		<g>
			<path class="st0" d="M502.93,51.04c-4.88,0-9.15-1.81-12.71-5.37c-3.56-3.56-5.37-7.84-5.37-12.71c0-4.86,1.8-9.17,5.36-12.81
				c3.57-3.64,7.85-5.49,12.73-5.49c5.01,0,9.36,1.85,12.93,5.49c3.56,3.64,5.36,7.95,5.36,12.81c0,4.87-1.81,9.14-5.37,12.71
				C512.29,49.23,507.94,51.04,502.93,51.04z"/>
			<path class="st0" d="M502.93,16.17c4.62,0,8.57,1.68,11.86,5.04c3.28,3.36,4.93,7.28,4.93,11.76c0,4.48-1.65,8.36-4.93,11.65
				c-3.29,3.29-7.25,4.93-11.86,4.93c-4.48,0-8.36-1.64-11.65-4.93c-3.29-3.29-4.93-7.17-4.93-11.65c0-4.48,1.64-8.4,4.93-11.76
				C494.57,17.85,498.45,16.17,502.93,16.17 M502.93,13.17c-5.3,0-9.94,2-13.8,5.94c-3.84,3.92-5.79,8.58-5.79,13.86
				c0,5.29,1.96,9.92,5.81,13.77c3.85,3.85,8.48,5.81,13.77,5.81c5.42,0,10.13-1.95,13.98-5.81c3.86-3.86,5.81-8.49,5.81-13.77
				c0-5.26-1.95-9.92-5.78-13.85C513.07,15.16,508.36,13.17,502.93,13.17L502.93,13.17z"/>
		</g>
		<g>
			<path class="st0" d="M604.12,182.83c-17.15,0-31.84-6-43.66-17.82c-11.83-11.82-17.82-26.51-17.82-43.66
				c0-17.15,6-31.84,17.82-43.66c11.83-11.82,26.52-17.82,43.66-17.82c17.14,0,31.87,5.99,43.77,17.81
				c11.9,11.83,17.94,26.52,17.94,43.67c0,17.15-6.04,31.84-17.94,43.67C635.99,176.84,621.26,182.83,604.12,182.83z M604.12,91.5
				c-8.33,0-15.35,2.83-20.86,8.41c-5.52,5.59-8.31,12.8-8.31,21.44c0,8.64,2.8,15.85,8.31,21.44c5.51,5.58,12.53,8.42,20.86,8.42
				c8.33,0,15.39-2.83,20.98-8.42c5.59-5.59,8.42-12.8,8.42-21.43c0-8.63-2.83-15.84-8.42-21.43
				C619.51,94.33,612.45,91.5,604.12,91.5z"/>
			<path class="st0" d="M604.12,61.37c16.81,0,31.05,5.79,42.71,17.38c11.66,11.59,17.5,25.79,17.5,42.6
				c0,16.81-5.84,31.02-17.5,42.6c-11.67,11.59-25.9,17.38-42.71,17.38c-16.82,0-31.02-5.79-42.6-17.38
				c-11.59-11.59-17.38-25.79-17.38-42.6c0-16.81,5.79-31.01,17.38-42.6C573.1,67.16,587.3,61.37,604.12,61.37 M604.12,152.71
				c8.78,0,16.13-2.96,22.04-8.86c5.91-5.91,8.86-13.41,8.86-22.5s-2.96-16.58-8.86-22.49C620.25,92.95,612.9,90,604.12,90
				c-8.79,0-16.1,2.95-21.93,8.86c-5.83,5.91-8.75,13.4-8.75,22.49s2.91,16.59,8.75,22.5C588.02,149.75,595.33,152.71,604.12,152.71
				 M604.12,58.37c-17.56,0-32.61,6.14-44.72,18.26c-12.12,12.12-18.26,27.17-18.26,44.72c0,17.56,6.14,32.61,18.26,44.72
				c12.12,12.12,27.16,18.26,44.72,18.26c17.55,0,32.63-6.14,44.83-18.25c12.2-12.12,18.38-27.17,18.38-44.73
				c0-17.56-6.19-32.61-18.38-44.73C636.75,64.51,621.67,58.37,604.12,58.37L604.12,58.37z M604.12,149.71
				c-8.03,0-14.5-2.61-19.79-7.97c-5.3-5.37-7.88-12.04-7.88-20.39c0-8.34,2.58-15.01,7.88-20.38c5.29-5.36,11.76-7.97,19.79-7.97
				c8.03,0,14.55,2.61,19.92,7.98c5.37,5.38,7.98,12.04,7.98,20.37c0,8.34-2.61,15-7.98,20.37
				C618.66,147.1,612.15,149.71,604.12,149.71L604.12,149.71z"/>
		</g>
		<g>
			<path class="st0" d="M763.03,179.65c-0.83,0-1.5-0.67-1.5-1.5v-66.12c0-7.12-1.91-12.61-5.68-16.31
				c-3.78-3.71-8.93-5.59-15.31-5.59c-7.12,0-12.87,2.22-17.1,6.59c-4.24,4.38-6.39,11.14-6.39,20.08v61.35c0,0.83-0.67,1.5-1.5,1.5
				h-29.31c-0.83,0-1.5-0.67-1.5-1.5V64.55c0-0.83,0.67-1.5,1.5-1.5h29.31c0.83,0,1.5,0.67,1.5,1.5v8.29
				c7.43-8.61,18.29-12.97,32.35-12.97c12.78,0,23.5,4.36,31.86,12.95c8.35,8.59,12.58,20.56,12.58,35.58v69.75
				c0,0.83-0.67,1.5-1.5,1.5H763.03z"/>
			<path class="st0" d="M749.4,61.37c12.42,0,22.68,4.17,30.79,12.5c8.1,8.33,12.16,19.84,12.16,34.54v69.75h-29.31v-66.12
				c0-7.57-2.05-13.37-6.13-17.38c-4.09-4.01-9.54-6.02-16.36-6.02c-7.57,0-13.63,2.35-18.18,7.04c-4.54,4.69-6.82,11.74-6.82,21.13
				v61.35h-29.31V64.55h29.31v12.73C722.67,66.67,733.95,61.37,749.4,61.37 M749.4,58.37c-12.96,0-23.3,3.6-30.85,10.73v-4.55
				c0-1.66-1.34-3-3-3h-29.31c-1.66,0-3,1.34-3,3v113.6c0,1.66,1.34,3,3,3h29.31c1.66,0,3-1.34,3-3v-61.35
				c0-8.54,2.01-14.95,5.97-19.04c3.99-4.13,9.23-6.13,16.02-6.13c6.05,0,10.72,1.69,14.26,5.16c3.47,3.41,5.23,8.54,5.23,15.24
				v66.12c0,1.66,1.34,3,3,3h29.31c1.66,0,3-1.34,3-3V108.4c0-15.43-4.38-27.75-13-36.63C773.68,62.88,762.6,58.37,749.4,58.37
				L749.4,58.37z"/>
		</g>
		<g>
			<path class="st0" d="M1006.03,182.83c-17.15,0-31.84-6-43.66-17.82c-11.83-11.82-17.82-26.51-17.82-43.66
				c0-17.15,6-31.84,17.82-43.66c11.83-11.82,26.52-17.82,43.66-17.82c17.14,0,31.87,5.99,43.77,17.81
				c11.9,11.83,17.94,26.52,17.94,43.67c0,17.15-6.04,31.84-17.94,43.67C1037.9,176.84,1023.18,182.83,1006.03,182.83z
				 M1006.03,91.5c-8.33,0-15.35,2.83-20.86,8.41c-5.52,5.59-8.31,12.8-8.31,21.44c0,8.64,2.8,15.86,8.31,21.44
				c5.51,5.58,12.53,8.42,20.86,8.42c8.33,0,15.39-2.83,20.98-8.42c5.59-5.59,8.42-12.8,8.42-21.43c0-8.63-2.83-15.84-8.42-21.43
				C1021.43,94.33,1014.37,91.5,1006.03,91.5z"/>
			<path class="st0" d="M1006.03,61.37c16.81,0,31.05,5.79,42.72,17.38c11.66,11.59,17.5,25.79,17.5,42.6
				c0,16.81-5.83,31.02-17.5,42.6c-11.67,11.59-25.9,17.38-42.72,17.38c-16.81,0-31.01-5.79-42.6-17.38
				c-11.59-11.59-17.38-25.79-17.38-42.6c0-16.81,5.79-31.01,17.38-42.6C975.02,67.16,989.22,61.37,1006.03,61.37 M1006.03,152.71
				c8.78,0,16.13-2.96,22.04-8.86c5.9-5.91,8.86-13.41,8.86-22.5s-2.95-16.58-8.86-22.49c-5.91-5.91-13.26-8.86-22.04-8.86
				c-8.78,0-16.1,2.95-21.92,8.86c-5.83,5.91-8.75,13.4-8.75,22.49s2.91,16.59,8.75,22.5
				C989.94,149.75,997.25,152.71,1006.03,152.71 M1006.03,58.37c-17.56,0-32.61,6.14-44.72,18.26
				c-12.12,12.12-18.26,27.17-18.26,44.72c0,17.56,6.14,32.61,18.26,44.72c12.12,12.12,27.16,18.26,44.72,18.26
				c17.55,0,32.64-6.14,44.83-18.25c12.2-12.12,18.38-27.17,18.38-44.73c0-17.56-6.18-32.61-18.38-44.73
				C1038.67,64.51,1023.59,58.37,1006.03,58.37L1006.03,58.37z M1006.03,149.71c-8.03,0-14.5-2.61-19.79-7.97
				c-5.3-5.37-7.88-12.04-7.88-20.39c0-8.35,2.58-15.01,7.88-20.38C991.53,95.6,998,93,1006.03,93c8.03,0,14.55,2.61,19.92,7.98
				c5.37,5.37,7.98,12.04,7.98,20.37c0,8.34-2.61,15-7.98,20.37C1020.58,147.1,1014.06,149.71,1006.03,149.71L1006.03,149.71z"/>
		</g>
		<g>
			<path class="st0" d="M187.84,182.83c-17.15,0-31.84-6-43.66-17.82c-11.83-11.82-17.82-26.51-17.82-43.66
				c0-17.15,6-31.84,17.82-43.66c11.82-11.82,26.51-17.82,43.66-17.82c17.14,0,31.87,5.99,43.77,17.82
				c11.9,11.83,17.94,26.52,17.94,43.67c0,0.58-0.02,1.15-0.03,1.71l0,0.04c0.02,0.1,0.04,0.2,0.04,0.31v54.73
				c0,0.83-0.67,1.5-1.5,1.5h-29.31c-0.83,0-1.5-0.67-1.5-1.5v-2.39C208.5,180.46,198.62,182.83,187.84,182.83z M187.84,91.5
				c-8.33,0-15.35,2.83-20.86,8.41c-5.52,5.59-8.31,12.8-8.31,21.44c0,8.64,2.8,15.85,8.31,21.44c5.51,5.58,12.53,8.42,20.86,8.42
				c8.33,0,15.39-2.83,20.98-8.42c5.59-5.59,8.42-12.8,8.42-21.43c0-8.63-2.83-15.84-8.42-21.43
				C203.23,94.33,196.17,91.5,187.84,91.5z"/>
			<path class="st0" d="M187.84,61.37c16.81,0,31.05,5.79,42.71,17.38c11.66,11.59,17.5,25.79,17.5,42.6c0,0.69-0.03,1.37-0.04,2.05
				l0.04,0.02v54.73h-29.31v-4.96c-9.09,5.43-19.39,8.14-30.9,8.14c-16.81,0-31.02-5.79-42.6-17.38
				c-11.59-11.59-17.38-25.79-17.38-42.6c0-16.81,5.79-31.01,17.38-42.6C156.83,67.16,171.03,61.37,187.84,61.37 M187.84,152.71
				c8.78,0,16.13-2.96,22.04-8.86c5.91-5.91,8.86-13.41,8.86-22.5s-2.96-16.58-8.86-22.49c-5.91-5.91-13.25-8.86-22.04-8.86
				c-8.79,0-16.1,2.95-21.93,8.86c-5.83,5.91-8.75,13.4-8.75,22.49s2.91,16.59,8.75,22.5C171.74,149.75,179.05,152.71,187.84,152.71
				 M187.84,58.37c-17.56,0-32.61,6.14-44.72,18.26c-12.12,12.12-18.26,27.17-18.26,44.72c0,17.56,6.14,32.61,18.26,44.72
				c12.11,12.12,27.16,18.26,44.72,18.26c10.14,0,19.5-2.06,27.9-6.12c0.03,1.63,1.36,2.94,3,2.94h29.31c1.66,0,3-1.34,3-3v-54.73
				c0-0.15-0.01-0.29-0.03-0.43c0.02-0.54,0.03-1.09,0.03-1.64c0-17.56-6.19-32.61-18.38-44.73
				C220.48,64.51,205.39,58.37,187.84,58.37L187.84,58.37z M187.84,149.71c-8.02,0-14.5-2.61-19.79-7.97
				c-5.3-5.37-7.88-12.04-7.88-20.39c0-8.34,2.58-15.01,7.88-20.38c5.29-5.36,11.76-7.97,19.79-7.97c8.03,0,14.55,2.61,19.92,7.98
				c5.37,5.38,7.98,12.04,7.98,20.37c0,8.34-2.61,15-7.98,20.37C202.39,147.1,195.87,149.71,187.84,149.71L187.84,149.71z"/>
		</g>
		<path class="st6" d="M871.5,61.37c-33.73,0-59.16,25.74-59.16,59.87c0,35.39,25.1,60.1,61.04,60.1c18.64,0,36.23-5.93,47.06-15.85
			l0.19-0.17l-13.52-19.8l-0.25,0.24c-7.53,7.29-21.17,11.22-30.18,11.22c-17.51,0-30.19-10.11-32.4-25.79h84.5v-6.88
			c0-18.34-5.48-34.06-15.85-45.47C902.54,67.41,888.21,61.37,871.5,61.37z M843.8,110.35c1.55-11.43,9.69-24.62,27.69-24.62
			c9.65,0,26.27,5.19,27.71,24.62H843.8z"/>
		<path class="st5" d="M98.73,144.11L96.65,142l-2.04,2.14c-5.23,5.5-11.96,8.96-19.49,10c-1.49,0.21-3.02,0.31-4.55,0.31
			c-0.23,0-0.46,0-0.69-0.01l-0.05,0h-0.05c-0.19,0-0.38,0-0.58,0c-7.33,0-13.52-2.05-18.94-6.26c-4.22-3.28-7.42-7.47-9.51-12.46
			l-0.03-0.06l-0.03-0.06c-1.48-3.09-2.46-6.38-2.93-9.78c-0.46-3.34-0.41-6.7,0.14-9.99l0.01-0.08l0.01-0.08
			c0.62-5.53,2.58-10.56,5.81-14.93c3.44-4.65,8.01-8.07,13.58-10.17l0.26-0.1c2.6-0.95,5.42-1.64,8.42-2.05
			c1.68-0.23,3.35-0.35,4.96-0.35c3.84,0,7.52,0.67,10.96,1.99c0.64,0.25,1.31,0.54,2.05,0.89l0.03,0.02L84.04,91
			c4.04,1.8,7.64,4.35,10.69,7.58l1.78,1.89l2.05-1.6l16.2-12.63l2.27-1.77l-1.79-2.26c-6.04-7.59-13.87-13.28-23.27-16.91
			c-6.75-2.6-13.82-3.92-21.04-3.92c-2.81,0-5.7,0.2-8.58,0.6C45.3,64.32,31.78,72.03,22.17,84.89
			c-9.59,12.85-13.29,27.85-10.98,44.59c2.29,16.63,9.9,30.05,22.61,39.88c10.27,7.94,22.14,11.97,35.26,11.97
			c3.12,0,6.36-0.23,9.64-0.68c10.38-1.43,19.7-5.2,27.7-11.22c2.58-1.94,4.98-4.07,7.14-6.33l1.91-2l-1.94-1.97L98.73,144.11z"/>
	</g>
</g>
<g id="Calque_4">
</g>
</svg>
